<mxfile host="app.diagrams.net" modified="2021-04-15T07:17:45.449Z" agent="5.0 (Windows NT 10.0; WOW64) AppleWebKit/537.36 (KHTML, like Gecko) Chrome/74.0.3713.0 Safari/537.36" etag="-_QKsET96bKDaeDnxOAD" version="14.6.0" type="github">
  <diagram id="wgyzVxdDC9Xf9leXpCO0" name="第 1 页">
    <mxGraphModel dx="1038" dy="499" grid="1" gridSize="10" guides="1" tooltips="1" connect="1" arrows="1" fold="1" page="1" pageScale="1" pageWidth="827" pageHeight="1169" math="0" shadow="0">
      <root>
        <mxCell id="0" />
        <mxCell id="1" parent="0" />
        <mxCell id="fENtUGCpoddva3gx8SRs-1" style="edgeStyle=orthogonalEdgeStyle;rounded=0;orthogonalLoop=1;jettySize=auto;html=1;" edge="1" parent="1" source="fENtUGCpoddva3gx8SRs-2" target="fENtUGCpoddva3gx8SRs-4">
          <mxGeometry relative="1" as="geometry">
            <mxPoint x="200" y="110" as="targetPoint" />
          </mxGeometry>
        </mxCell>
        <mxCell id="fENtUGCpoddva3gx8SRs-2" value="开始" style="ellipse;whiteSpace=wrap;html=1;aspect=fixed;" vertex="1" parent="1">
          <mxGeometry x="170" y="10" width="60" height="60" as="geometry" />
        </mxCell>
        <mxCell id="fENtUGCpoddva3gx8SRs-3" style="edgeStyle=orthogonalEdgeStyle;rounded=0;orthogonalLoop=1;jettySize=auto;html=1;" edge="1" parent="1" source="fENtUGCpoddva3gx8SRs-4">
          <mxGeometry relative="1" as="geometry">
            <mxPoint x="200" y="190" as="targetPoint" />
          </mxGeometry>
        </mxCell>
        <mxCell id="fENtUGCpoddva3gx8SRs-4" value="&lt;font style=&quot;font-size: 14px&quot;&gt;&lt;b&gt;获取key的hash值&lt;/b&gt;&lt;/font&gt;" style="rounded=1;whiteSpace=wrap;html=1;" vertex="1" parent="1">
          <mxGeometry x="140" y="100" width="120" height="50" as="geometry" />
        </mxCell>
        <mxCell id="fENtUGCpoddva3gx8SRs-5" style="edgeStyle=orthogonalEdgeStyle;rounded=0;orthogonalLoop=1;jettySize=auto;html=1;" edge="1" parent="1" source="fENtUGCpoddva3gx8SRs-7">
          <mxGeometry relative="1" as="geometry">
            <mxPoint x="390" y="230" as="targetPoint" />
          </mxGeometry>
        </mxCell>
        <mxCell id="fENtUGCpoddva3gx8SRs-6" style="edgeStyle=orthogonalEdgeStyle;rounded=0;orthogonalLoop=1;jettySize=auto;html=1;" edge="1" parent="1" source="fENtUGCpoddva3gx8SRs-7">
          <mxGeometry relative="1" as="geometry">
            <mxPoint x="200" y="330" as="targetPoint" />
          </mxGeometry>
        </mxCell>
        <mxCell id="fENtUGCpoddva3gx8SRs-7" value="&lt;span&gt;&lt;font style=&quot;font-size: 18px&quot;&gt;&lt;b&gt;table ？null&lt;/b&gt;&lt;/font&gt;&lt;/span&gt;" style="rhombus;whiteSpace=wrap;html=1;" vertex="1" parent="1">
          <mxGeometry x="90" y="190" width="220" height="80" as="geometry" />
        </mxCell>
        <mxCell id="fENtUGCpoddva3gx8SRs-8" value="&lt;font style=&quot;font-size: 18px&quot;&gt;&lt;b&gt;return null&lt;/b&gt;&lt;/font&gt;" style="ellipse;whiteSpace=wrap;html=1;fillColor=#e51400;strokeColor=#B20000;fontColor=#ffffff;" vertex="1" parent="1">
          <mxGeometry x="390" y="190" width="120" height="80" as="geometry" />
        </mxCell>
        <mxCell id="fENtUGCpoddva3gx8SRs-9" value="&lt;font style=&quot;font-size: 24px&quot;&gt;null&lt;/font&gt;" style="text;html=1;strokeColor=none;fillColor=none;align=center;verticalAlign=middle;whiteSpace=wrap;rounded=0;" vertex="1" parent="1">
          <mxGeometry x="320" y="200" width="40" height="20" as="geometry" />
        </mxCell>
        <mxCell id="fENtUGCpoddva3gx8SRs-10" value="&lt;span style=&quot;font-size: 24px&quot;&gt;not&amp;nbsp;&lt;/span&gt;&lt;span style=&quot;font-size: 24px&quot;&gt;null&lt;/span&gt;" style="text;html=1;strokeColor=none;fillColor=none;align=center;verticalAlign=middle;whiteSpace=wrap;rounded=0;" vertex="1" parent="1">
          <mxGeometry x="180" y="280" width="130" height="30" as="geometry" />
        </mxCell>
        <mxCell id="fENtUGCpoddva3gx8SRs-11" style="edgeStyle=orthogonalEdgeStyle;rounded=0;orthogonalLoop=1;jettySize=auto;html=1;" edge="1" parent="1" source="fENtUGCpoddva3gx8SRs-12" target="fENtUGCpoddva3gx8SRs-15">
          <mxGeometry relative="1" as="geometry">
            <mxPoint x="205" y="440" as="targetPoint" />
          </mxGeometry>
        </mxCell>
        <mxCell id="fENtUGCpoddva3gx8SRs-12" value="&lt;font style=&quot;font-size: 18px&quot;&gt;&lt;b&gt;index=（n-1) &amp;amp; hash;&lt;/b&gt;&lt;/font&gt;" style="rounded=1;whiteSpace=wrap;html=1;" vertex="1" parent="1">
          <mxGeometry x="110" y="330" width="190" height="70" as="geometry" />
        </mxCell>
        <mxCell id="fENtUGCpoddva3gx8SRs-13" style="edgeStyle=orthogonalEdgeStyle;rounded=0;orthogonalLoop=1;jettySize=auto;html=1;" edge="1" parent="1" source="fENtUGCpoddva3gx8SRs-15">
          <mxGeometry relative="1" as="geometry">
            <mxPoint x="430" y="510" as="targetPoint" />
          </mxGeometry>
        </mxCell>
        <mxCell id="fENtUGCpoddva3gx8SRs-14" style="edgeStyle=orthogonalEdgeStyle;rounded=0;orthogonalLoop=1;jettySize=auto;html=1;" edge="1" parent="1" source="fENtUGCpoddva3gx8SRs-15">
          <mxGeometry relative="1" as="geometry">
            <mxPoint x="205" y="640" as="targetPoint" />
          </mxGeometry>
        </mxCell>
        <mxCell id="fENtUGCpoddva3gx8SRs-15" value="&lt;font style=&quot;font-size: 18px&quot;&gt;&lt;b&gt;table[index] ? null&lt;/b&gt;&lt;/font&gt;" style="rhombus;whiteSpace=wrap;html=1;" vertex="1" parent="1">
          <mxGeometry x="60" y="470" width="290" height="80" as="geometry" />
        </mxCell>
        <mxCell id="fENtUGCpoddva3gx8SRs-16" value="&lt;font style=&quot;font-size: 18px&quot;&gt;&lt;b&gt;return null&lt;/b&gt;&lt;/font&gt;" style="ellipse;whiteSpace=wrap;html=1;fillColor=#e51400;strokeColor=#B20000;fontColor=#ffffff;" vertex="1" parent="1">
          <mxGeometry x="430" y="470" width="120" height="80" as="geometry" />
        </mxCell>
        <mxCell id="fENtUGCpoddva3gx8SRs-17" value="&lt;font style=&quot;font-size: 24px&quot;&gt;null&lt;/font&gt;" style="text;html=1;strokeColor=none;fillColor=none;align=center;verticalAlign=middle;whiteSpace=wrap;rounded=0;" vertex="1" parent="1">
          <mxGeometry x="360" y="480" width="40" height="20" as="geometry" />
        </mxCell>
        <mxCell id="fENtUGCpoddva3gx8SRs-18" value="&lt;span style=&quot;font-size: 24px&quot;&gt;not&amp;nbsp;&lt;/span&gt;&lt;span style=&quot;font-size: 24px&quot;&gt;null&lt;/span&gt;" style="text;html=1;strokeColor=none;fillColor=none;align=center;verticalAlign=middle;whiteSpace=wrap;rounded=0;" vertex="1" parent="1">
          <mxGeometry x="190" y="570" width="130" height="30" as="geometry" />
        </mxCell>
        <mxCell id="fENtUGCpoddva3gx8SRs-19" style="edgeStyle=orthogonalEdgeStyle;rounded=0;orthogonalLoop=1;jettySize=auto;html=1;" edge="1" parent="1" source="fENtUGCpoddva3gx8SRs-21">
          <mxGeometry relative="1" as="geometry">
            <mxPoint x="550" y="850" as="targetPoint" />
          </mxGeometry>
        </mxCell>
        <mxCell id="fENtUGCpoddva3gx8SRs-20" style="edgeStyle=orthogonalEdgeStyle;rounded=0;orthogonalLoop=1;jettySize=auto;html=1;" edge="1" parent="1" source="fENtUGCpoddva3gx8SRs-21">
          <mxGeometry relative="1" as="geometry">
            <mxPoint x="205" y="970" as="targetPoint" />
          </mxGeometry>
        </mxCell>
        <mxCell id="fENtUGCpoddva3gx8SRs-21" value="&lt;font style=&quot;font-size: 18px&quot;&gt;&lt;b&gt;table[index] instanceof TreeNode&lt;/b&gt;&lt;/font&gt;" style="rhombus;whiteSpace=wrap;html=1;" vertex="1" parent="1">
          <mxGeometry x="30" y="810" width="350" height="80" as="geometry" />
        </mxCell>
        <mxCell id="fENtUGCpoddva3gx8SRs-22" style="edgeStyle=orthogonalEdgeStyle;rounded=0;orthogonalLoop=1;jettySize=auto;html=1;" edge="1" parent="1" source="fENtUGCpoddva3gx8SRs-24">
          <mxGeometry relative="1" as="geometry">
            <mxPoint x="570" y="680" as="targetPoint" />
          </mxGeometry>
        </mxCell>
        <mxCell id="fENtUGCpoddva3gx8SRs-23" style="edgeStyle=orthogonalEdgeStyle;rounded=0;orthogonalLoop=1;jettySize=auto;html=1;" edge="1" parent="1" source="fENtUGCpoddva3gx8SRs-24">
          <mxGeometry relative="1" as="geometry">
            <mxPoint x="205" y="810" as="targetPoint" />
          </mxGeometry>
        </mxCell>
        <mxCell id="fENtUGCpoddva3gx8SRs-24" value="&lt;b&gt;&lt;font style=&quot;font-size: 14px&quot;&gt;table[index] .hash==hash？&lt;/font&gt;&lt;/b&gt;" style="rhombus;whiteSpace=wrap;html=1;" vertex="1" parent="1">
          <mxGeometry x="80" y="640" width="250" height="80" as="geometry" />
        </mxCell>
        <mxCell id="fENtUGCpoddva3gx8SRs-25" value="&lt;b&gt;&lt;font style=&quot;font-size: 14px&quot;&gt;table[index] .hash == hash &amp;amp;&amp;amp;&lt;br&gt;table[index].key.equals(key)&lt;br&gt;&lt;/font&gt;&lt;/b&gt;" style="text;html=1;align=center;verticalAlign=middle;resizable=0;points=[];autosize=1;" vertex="1" parent="1">
          <mxGeometry x="330" y="625" width="220" height="30" as="geometry" />
        </mxCell>
        <mxCell id="fENtUGCpoddva3gx8SRs-26" style="edgeStyle=orthogonalEdgeStyle;rounded=0;orthogonalLoop=1;jettySize=auto;html=1;" edge="1" parent="1" source="fENtUGCpoddva3gx8SRs-27">
          <mxGeometry relative="1" as="geometry">
            <mxPoint x="620" y="930" as="targetPoint" />
          </mxGeometry>
        </mxCell>
        <mxCell id="fENtUGCpoddva3gx8SRs-27" value="&lt;font style=&quot;font-size: 14px&quot;&gt;&lt;b&gt;调用TreeNode的getTreeNode,查找&lt;/b&gt;&lt;/font&gt;" style="rounded=1;whiteSpace=wrap;html=1;" vertex="1" parent="1">
          <mxGeometry x="550" y="810" width="140" height="90" as="geometry" />
        </mxCell>
        <mxCell id="fENtUGCpoddva3gx8SRs-28" style="edgeStyle=orthogonalEdgeStyle;rounded=0;orthogonalLoop=1;jettySize=auto;html=1;entryX=0.5;entryY=0;entryDx=0;entryDy=0;" edge="1" parent="1" source="fENtUGCpoddva3gx8SRs-30" target="fENtUGCpoddva3gx8SRs-35">
          <mxGeometry relative="1" as="geometry" />
        </mxCell>
        <mxCell id="fENtUGCpoddva3gx8SRs-29" style="edgeStyle=orthogonalEdgeStyle;rounded=0;orthogonalLoop=1;jettySize=auto;html=1;" edge="1" parent="1" source="fENtUGCpoddva3gx8SRs-30">
          <mxGeometry relative="1" as="geometry">
            <mxPoint x="780" y="970" as="targetPoint" />
            <Array as="points">
              <mxPoint x="750" y="970" />
              <mxPoint x="750" y="970" />
            </Array>
          </mxGeometry>
        </mxCell>
        <mxCell id="fENtUGCpoddva3gx8SRs-30" value="&lt;font style=&quot;font-size: 14px&quot;&gt;&lt;b&gt;能否找到key？&lt;/b&gt;&lt;/font&gt;" style="rhombus;whiteSpace=wrap;html=1;" vertex="1" parent="1">
          <mxGeometry x="555" y="930" width="130" height="80" as="geometry" />
        </mxCell>
        <mxCell id="fENtUGCpoddva3gx8SRs-31" value="&lt;span style=&quot;font-size: 14px&quot;&gt;&lt;b&gt;找不到key&lt;/b&gt;&lt;/span&gt;" style="text;html=1;strokeColor=none;fillColor=none;align=center;verticalAlign=middle;whiteSpace=wrap;rounded=0;" vertex="1" parent="1">
          <mxGeometry x="690" y="950" width="80" height="10" as="geometry" />
        </mxCell>
        <mxCell id="fENtUGCpoddva3gx8SRs-32" value="&lt;font style=&quot;font-size: 18px&quot;&gt;&lt;b&gt;return null&lt;/b&gt;&lt;/font&gt;" style="ellipse;whiteSpace=wrap;html=1;fillColor=#e51400;strokeColor=#B20000;fontColor=#ffffff;" vertex="1" parent="1">
          <mxGeometry x="780" y="930" width="120" height="80" as="geometry" />
        </mxCell>
        <mxCell id="fENtUGCpoddva3gx8SRs-33" value="&lt;span style=&quot;font-size: 14px&quot;&gt;&lt;b&gt;找到key&lt;/b&gt;&lt;/span&gt;" style="text;html=1;strokeColor=none;fillColor=none;align=center;verticalAlign=middle;whiteSpace=wrap;rounded=0;" vertex="1" parent="1">
          <mxGeometry x="630" y="1020" width="80" height="20" as="geometry" />
        </mxCell>
        <mxCell id="fENtUGCpoddva3gx8SRs-34" style="edgeStyle=orthogonalEdgeStyle;rounded=0;orthogonalLoop=1;jettySize=auto;html=1;" edge="1" parent="1" source="fENtUGCpoddva3gx8SRs-35" target="fENtUGCpoddva3gx8SRs-50">
          <mxGeometry relative="1" as="geometry">
            <mxPoint x="620" y="1170" as="targetPoint" />
          </mxGeometry>
        </mxCell>
        <mxCell id="fENtUGCpoddva3gx8SRs-35" value="&lt;span&gt;&lt;font style=&quot;font-size: 14px&quot;&gt;&lt;b&gt;node(key对应的节点)&lt;/b&gt;&lt;/font&gt;&lt;/span&gt;" style="rounded=1;whiteSpace=wrap;html=1;fillColor=#6d8764;strokeColor=#3A5431;fontColor=#ffffff;" vertex="1" parent="1">
          <mxGeometry x="540" y="1060" width="160" height="70" as="geometry" />
        </mxCell>
        <mxCell id="fENtUGCpoddva3gx8SRs-36" value="&lt;span style=&quot;font-size: 24px&quot;&gt;true&lt;/span&gt;" style="text;html=1;strokeColor=none;fillColor=none;align=center;verticalAlign=middle;whiteSpace=wrap;rounded=0;" vertex="1" parent="1">
          <mxGeometry x="380" y="810" width="130" height="30" as="geometry" />
        </mxCell>
        <mxCell id="fENtUGCpoddva3gx8SRs-37" value="&lt;span style=&quot;font-size: 24px&quot;&gt;false&lt;/span&gt;" style="text;html=1;strokeColor=none;fillColor=none;align=center;verticalAlign=middle;whiteSpace=wrap;rounded=0;" vertex="1" parent="1">
          <mxGeometry x="200" y="900" width="130" height="30" as="geometry" />
        </mxCell>
        <mxCell id="fENtUGCpoddva3gx8SRs-38" style="edgeStyle=orthogonalEdgeStyle;rounded=0;orthogonalLoop=1;jettySize=auto;html=1;" edge="1" parent="1" source="fENtUGCpoddva3gx8SRs-39" target="fENtUGCpoddva3gx8SRs-52">
          <mxGeometry relative="1" as="geometry">
            <mxPoint x="760" y="680" as="targetPoint" />
          </mxGeometry>
        </mxCell>
        <mxCell id="fENtUGCpoddva3gx8SRs-39" value="&lt;font style=&quot;font-size: 14px&quot;&gt;&lt;b&gt;node=table[index]&lt;/b&gt;&lt;/font&gt;" style="rounded=1;whiteSpace=wrap;html=1;fillColor=#6d8764;strokeColor=#3A5431;fontColor=#ffffff;" vertex="1" parent="1">
          <mxGeometry x="570" y="650" width="130" height="60" as="geometry" />
        </mxCell>
        <mxCell id="fENtUGCpoddva3gx8SRs-40" style="edgeStyle=orthogonalEdgeStyle;rounded=0;orthogonalLoop=1;jettySize=auto;html=1;" edge="1" parent="1" source="fENtUGCpoddva3gx8SRs-41">
          <mxGeometry relative="1" as="geometry">
            <mxPoint x="205" y="1060" as="targetPoint" />
          </mxGeometry>
        </mxCell>
        <mxCell id="fENtUGCpoddva3gx8SRs-41" value="&lt;span&gt;&lt;font style=&quot;font-size: 14px&quot;&gt;&lt;b&gt;遍历node链表，查找&lt;/b&gt;&lt;/font&gt;&lt;/span&gt;" style="rounded=1;whiteSpace=wrap;html=1;" vertex="1" parent="1">
          <mxGeometry x="130" y="970" width="150" height="40" as="geometry" />
        </mxCell>
        <mxCell id="fENtUGCpoddva3gx8SRs-42" style="edgeStyle=orthogonalEdgeStyle;rounded=0;orthogonalLoop=1;jettySize=auto;html=1;exitX=0.5;exitY=1;exitDx=0;exitDy=0;" edge="1" parent="1" source="fENtUGCpoddva3gx8SRs-43">
          <mxGeometry relative="1" as="geometry">
            <mxPoint x="205" y="1190" as="targetPoint" />
          </mxGeometry>
        </mxCell>
        <mxCell id="fENtUGCpoddva3gx8SRs-43" value="&lt;font style=&quot;font-size: 14px&quot;&gt;&lt;b&gt;能否找到key&lt;/b&gt;&lt;/font&gt;" style="rhombus;whiteSpace=wrap;html=1;" vertex="1" parent="1">
          <mxGeometry x="120" y="1060" width="170" height="80" as="geometry" />
        </mxCell>
        <mxCell id="fENtUGCpoddva3gx8SRs-44" style="edgeStyle=orthogonalEdgeStyle;rounded=0;orthogonalLoop=1;jettySize=auto;html=1;" edge="1" parent="1">
          <mxGeometry relative="1" as="geometry">
            <mxPoint x="385" y="1100" as="targetPoint" />
            <mxPoint x="290" y="1100" as="sourcePoint" />
            <Array as="points">
              <mxPoint x="355" y="1100" />
              <mxPoint x="355" y="1100" />
            </Array>
          </mxGeometry>
        </mxCell>
        <mxCell id="fENtUGCpoddva3gx8SRs-45" value="&lt;span style=&quot;font-size: 14px&quot;&gt;&lt;b&gt;找不到key&lt;/b&gt;&lt;/span&gt;" style="text;html=1;strokeColor=none;fillColor=none;align=center;verticalAlign=middle;whiteSpace=wrap;rounded=0;" vertex="1" parent="1">
          <mxGeometry x="295" y="1080" width="80" height="10" as="geometry" />
        </mxCell>
        <mxCell id="fENtUGCpoddva3gx8SRs-46" value="&lt;font style=&quot;font-size: 18px&quot;&gt;&lt;b&gt;return null&lt;/b&gt;&lt;/font&gt;" style="ellipse;whiteSpace=wrap;html=1;fillColor=#e51400;strokeColor=#B20000;fontColor=#ffffff;" vertex="1" parent="1">
          <mxGeometry x="385" y="1060" width="120" height="80" as="geometry" />
        </mxCell>
        <mxCell id="fENtUGCpoddva3gx8SRs-47" value="&lt;span style=&quot;font-size: 14px&quot;&gt;&lt;b&gt;找到key&lt;/b&gt;&lt;/span&gt;" style="text;html=1;strokeColor=none;fillColor=none;align=center;verticalAlign=middle;whiteSpace=wrap;rounded=0;" vertex="1" parent="1">
          <mxGeometry x="215" y="1149" width="80" height="20" as="geometry" />
        </mxCell>
        <mxCell id="fENtUGCpoddva3gx8SRs-48" style="edgeStyle=orthogonalEdgeStyle;rounded=0;orthogonalLoop=1;jettySize=auto;html=1;" edge="1" parent="1" source="fENtUGCpoddva3gx8SRs-49">
          <mxGeometry relative="1" as="geometry">
            <mxPoint x="205" y="1290" as="targetPoint" />
          </mxGeometry>
        </mxCell>
        <mxCell id="fENtUGCpoddva3gx8SRs-49" value="&lt;span&gt;&lt;font style=&quot;font-size: 14px&quot;&gt;&lt;b&gt;node(key对应的节点)&lt;/b&gt;&lt;/font&gt;&lt;/span&gt;" style="rounded=1;whiteSpace=wrap;html=1;fillColor=#6d8764;strokeColor=#3A5431;fontColor=#ffffff;" vertex="1" parent="1">
          <mxGeometry x="125" y="1190" width="160" height="70" as="geometry" />
        </mxCell>
        <mxCell id="fENtUGCpoddva3gx8SRs-50" value="&lt;span&gt;&lt;font style=&quot;font-size: 14px&quot;&gt;调用removeTreeNode删除节点，并返回node&lt;/font&gt;&lt;/span&gt;" style="rounded=1;whiteSpace=wrap;html=1;fillColor=#008a00;strokeColor=#005700;fontColor=#ffffff;" vertex="1" parent="1">
          <mxGeometry x="540" y="1160" width="160" height="90" as="geometry" />
        </mxCell>
        <mxCell id="fENtUGCpoddva3gx8SRs-51" value="&lt;font style=&quot;font-size: 14px&quot;&gt;将node节点的next，设置成node节点的next；返回node&lt;/font&gt;" style="rounded=1;whiteSpace=wrap;html=1;fillColor=#008a00;strokeColor=#005700;fontColor=#ffffff;" vertex="1" parent="1">
          <mxGeometry x="120" y="1290" width="170" height="80" as="geometry" />
        </mxCell>
        <mxCell id="fENtUGCpoddva3gx8SRs-52" value="&lt;span&gt;&lt;font style=&quot;font-size: 14px&quot;&gt;&lt;b&gt;table[index]=node.next&lt;br&gt;返回node&lt;/b&gt;&lt;/font&gt;&lt;br&gt;&lt;/span&gt;" style="rounded=1;whiteSpace=wrap;html=1;fillColor=#008a00;strokeColor=#005700;fontColor=#ffffff;" vertex="1" parent="1">
          <mxGeometry x="760" y="630" width="150" height="100" as="geometry" />
        </mxCell>
      </root>
    </mxGraphModel>
  </diagram>
</mxfile>
